<svg width="82" height="131" viewBox="0 0 82 131" fill="none" xmlns="http://www.w3.org/2000/svg">
<rect x="30.002" y="5.99902" width="24" height="24" rx="12" fill="#6EA711"/>
<rect x="30.002" y="38.999" width="24" height="45" rx="12" fill="#6EA711"/>
<path d="M29.6461 67.0575C29.8144 65.903 31.5283 65.9674 31.5283 67.1282C31.5283 67.4055 31.6528 67.6644 31.8681 67.8349L36.2703 71.3211C40.2119 74.4425 41.8884 79.6051 40.5686 84.5571L30.5606 122.107C29.7872 125.009 26.4155 126.432 23.8706 124.93C22.3807 124.051 21.5834 122.368 21.836 120.635L29.6461 67.0575Z" fill="#6EA711"/>
<path d="M54.9565 58.0667C54.8137 57.1077 53.9686 56.3828 52.9935 56.3828C52.2337 56.3828 51.5614 56.8272 51.2799 57.5155L44.4935 74.1091C43.2713 77.0975 43.0887 80.4343 43.9736 83.6078L55.1673 123.753C56.0143 126.791 59.5301 128.293 62.2354 126.774C63.8848 125.848 64.7752 124.012 64.4933 122.119L54.9565 58.0667Z" fill="#6EA711"/>
<path d="M19.3887 46.573C12.9643 46.5755 7.2404 42.4868 5.15438 36.4051L0.599869 23.1267C0.382242 22.4923 0.314322 21.8164 0.40143 21.1521L0.500728 20.3949C1.08822 15.9147 7.38291 15.4416 8.65729 19.7818L10.5677 25.0995C11.1526 26.7275 12.0142 28.243 13.1144 29.5789L15.3165 32.2528C18.1765 35.7255 22.4391 37.7377 26.9321 37.7359L56.3634 37.7245C62.9127 37.7219 68.6917 33.4709 70.6389 27.2233L72.966 19.7567C74.2437 15.4191 80.5455 15.9312 81.1298 20.42L81.251 21.3511C81.3181 21.8666 81.293 22.3896 81.1769 22.8957L78.4127 34.947C76.8542 41.7419 70.814 46.5529 63.8381 46.5556L19.3887 46.573Z" fill="#6EA711"/>
</svg>
