<svg width="96" height="120" viewBox="0 0 96 120" fill="none" xmlns="http://www.w3.org/2000/svg">
<rect x="36.001" width="21" height="21" rx="10.5" fill="#EE7D14"/>
<path d="M50.8425 78.1513C51.6681 75.7732 55.0209 75.4926 56.3316 77.6918L74.5803 108.312C76.1321 110.916 74.6607 114.189 71.6564 114.817C69.9754 115.168 68.2177 114.572 67.1091 113.274L61.9569 107.245L51.4797 94.321C47.9935 90.0205 47.4742 84.1587 50.1617 79.4424L50.6276 78.6246C50.7137 78.4735 50.7856 78.3151 50.8425 78.1513Z" fill="#EE7D14"/>
<path d="M36.3813 38.1106C36.2295 40.7732 35.1704 43.291 33.3732 45.2613L29.7077 49.2798C28.8299 50.2422 28.0876 51.3164 27.5 52.4746L19.7867 67.6775C19.1099 69.0115 17.6729 69.7993 16.1437 69.6749C13.5966 69.4677 11.9296 66.9081 12.8285 64.5846L18.8239 49.088C19.3751 47.6631 20.1569 46.3385 21.1398 45.1642L31.2661 33.0651C32.535 31.5491 34.9689 31.7189 36.0718 33.4003C36.4172 33.927 36.5845 34.5446 36.5492 35.1633L36.3813 38.1106Z" fill="#EE7D14"/>
<path d="M48.8079 29.9651C53.5173 30.9745 56.6371 35.4261 55.9836 40.2036L51.3099 74.3676C50.9489 77.0066 49.8915 79.5075 48.2464 81.6135L25.9982 110.095C24.9123 111.485 23.2463 112.299 21.4874 112.299V112.299C16.9849 112.299 14.3132 107.316 16.7939 103.545L35.0338 75.8166C36.6539 73.3538 37.5175 70.4758 37.5175 67.5399L37.5173 39.0933C37.5173 33.1675 43.0143 28.7233 48.8079 29.9651V29.9651Z" fill="#EE7D14"/>
<path d="M37.8863 33.1285C39.2257 27.5269 45.9221 25.07 50.5007 28.5004L62.3424 37.3723C64.3536 38.8791 66.7245 39.8506 69.2345 40.1962L87.8223 42.7557C90.0396 43.061 91.6645 44.9454 91.6303 47.1717C91.5906 49.7578 89.3507 51.8037 86.7539 51.6259L65.1915 50.1492C63.6985 50.0469 62.2328 49.7239 60.8428 49.1907L42.6607 42.2158C39.003 40.8126 36.9729 36.9487 37.8863 33.1285Z" fill="#EE7D14"/>
</svg>
