<svg width="60" height="75" viewBox="0 0 60 75" fill="none" xmlns="http://www.w3.org/2000/svg">
<path d="M51.2143 29H8.35714C5.3985 29 3 31.3985 3 34.3571V66.5C3 69.4588 5.3985 71.8571 8.35714 71.8571H51.2143C54.173 71.8571 56.5714 69.4588 56.5714 66.5V34.3571C56.5714 31.3985 54.173 29 51.2143 29Z" stroke="white" stroke-width="6" stroke-linecap="round" stroke-linejoin="round"/>
<path d="M48.25 29.4644V21.4287C48.25 16.4559 46.2748 11.6867 42.7582 8.17048C39.242 4.65415 34.4728 2.67871 29.5 2.67871C24.5272 2.67871 19.758 4.65415 16.2418 8.17048C12.7254 11.6867 10.75 16.4559 10.75 21.4287V29.4644" stroke="white" stroke-width="6" stroke-linecap="round" stroke-linejoin="round"/>
<path d="M29.4999 53.572C30.9792 53.572 32.1784 52.3727 32.1784 50.8934C32.1784 49.4141 30.9792 48.2148 29.4999 48.2148C28.0205 48.2148 26.8213 49.4141 26.8213 50.8934C26.8213 52.3727 28.0205 53.572 29.4999 53.572Z" stroke="white" stroke-width="6" stroke-linecap="round" stroke-linejoin="round"/>
</svg>
