<svg width="60" height="60" viewBox="0 0 60 60" fill="none" xmlns="http://www.w3.org/2000/svg">
<rect x="33.165" y="12.042" width="23.5909" height="6" rx="3" transform="rotate(90.3963 33.165 12.042)" fill="#6C6C6C"/>
<rect x="15.001" y="35.54" width="6" height="18" rx="3" transform="rotate(-89.7068 15.001 35.54)" fill="#6C6C6C"/>
<path d="M60.001 30C60.001 46.5685 46.5695 60 30.001 60C13.4324 60 0.000976562 46.5685 0.000976562 30C0.000976562 13.4315 13.4324 0 30.001 0C46.5695 0 60.001 13.4315 60.001 30ZM6.00098 30C6.00098 43.2548 16.7461 54 30.001 54C43.2558 54 54.001 43.2548 54.001 30C54.001 16.7452 43.2558 6 30.001 6C16.7461 6 6.00098 16.7452 6.00098 30Z" fill="#6C6C6C"/>
</svg>
