<svg width="52" height="54" viewBox="0 0 52 54" fill="none" xmlns="http://www.w3.org/2000/svg">
<path d="M19.5935 48.0596L18.7748 45.9638L19.5935 48.0596ZM7.42435 50.3964L6.29935 52.345L6.29935 52.345L7.42435 50.3964ZM3.36349 38.6892L1.13914 39.0279L3.36349 38.6892ZM4.83439 30.8823L6.78294 32.0073L4.83439 30.8823ZM3.08194 34.5941L0.870842 34.1775L0.870842 34.1775L3.08194 34.5941ZM25.619 42.8823L27.5676 44.0073L25.619 42.8823ZM23.2807 46.2559L24.747 47.9625L24.747 47.9625L23.2807 46.2559ZM16.2297 11.1451L14.2811 10.0201L16.2297 11.1451ZM49.2297 54.0028C50.4723 54.0028 51.4797 52.9954 51.4797 51.7528C51.4797 50.5101 50.4723 49.5028 49.2297 49.5028V54.0028ZM31.2297 49.5028C29.9871 49.5028 28.9797 50.5101 28.9797 51.7528C28.9797 52.9954 29.9871 54.0028 31.2297 54.0028V49.5028ZM35.0658 22.0201L23.6704 41.7573L27.5676 44.0073L38.9629 24.2701L35.0658 22.0201ZM6.78294 32.0073L18.1783 12.2701L14.2811 10.0201L2.88583 29.7573L6.78294 32.0073ZM18.7748 45.9638C15.4853 47.249 13.2451 48.1183 11.5156 48.5224C9.84501 48.9127 9.08694 48.7582 8.54935 48.4478L6.29935 52.345C8.25916 53.4765 10.3618 53.4131 12.5394 52.9044C14.6583 52.4093 17.2539 51.3893 20.4123 50.1553L18.7748 45.9638ZM1.13914 39.0279C1.64971 42.3802 2.06415 45.1381 2.69486 47.2206C3.34307 49.3609 4.33954 51.2135 6.29935 52.345L8.54935 48.4478C8.01176 48.1375 7.49895 47.5582 7.00167 45.9162C6.48687 44.2165 6.11958 41.8417 5.58784 38.3504L1.13914 39.0279ZM2.88583 29.7573C1.92037 31.4296 1.14737 32.7099 0.870842 34.1775L5.29303 35.0107C5.39489 34.4701 5.66407 33.9453 6.78294 32.0073L2.88583 29.7573ZM5.58784 38.3504C5.25091 36.1381 5.19118 35.5514 5.29303 35.0107L0.870842 34.1775C0.594314 35.6452 0.84841 37.119 1.13914 39.0279L5.58784 38.3504ZM23.6704 41.7573C22.5516 43.6953 22.2316 44.1908 21.8144 44.5493L24.747 47.9625C25.8798 46.9892 26.6021 45.6796 27.5676 44.0073L23.6704 41.7573ZM20.4123 50.1553C22.2109 49.4526 23.6143 48.9358 24.747 47.9625L21.8144 44.5493C21.3971 44.9079 20.8591 45.1495 18.7748 45.9638L20.4123 50.1553ZM31.497 8.70134C34.0016 10.1474 35.6816 11.1228 36.8392 12.0161C37.945 12.8695 38.2973 13.4443 38.4404 13.9784L42.787 12.8137C42.2869 10.9471 41.0928 9.61454 39.5884 8.45356C38.1356 7.33248 36.1414 6.18663 33.747 4.80422L31.497 8.70134ZM38.9629 24.2701C40.3453 21.8757 41.4994 19.8862 42.197 18.189C42.9194 16.4313 43.2872 14.6802 42.787 12.8137L38.4404 13.9784C38.5835 14.5124 38.5658 15.1864 38.0348 16.4783C37.479 17.8307 36.5118 19.5155 35.0658 22.0201L38.9629 24.2701ZM33.747 4.80422C31.3526 3.42181 29.3632 2.26769 27.6659 1.57012C25.9082 0.847718 24.1571 0.479904 22.2906 0.980044L23.4553 5.32671C23.9893 5.18361 24.6633 5.20129 25.9553 5.73229C27.3076 6.28812 28.9924 7.25532 31.497 8.70134L33.747 4.80422ZM18.1783 12.2701C19.6243 9.76551 20.5998 8.08549 21.493 6.92794C22.3464 5.82209 22.9212 5.46981 23.4553 5.32671L22.2906 0.980044C20.424 1.48018 19.0915 2.67427 17.9305 4.17872C16.8094 5.63147 15.6636 7.62568 14.2811 10.0201L18.1783 12.2701ZM38.1393 21.1965L17.3547 9.19653L15.1047 13.0936L35.8893 25.0936L38.1393 21.1965ZM49.2297 49.5028H31.2297V54.0028H49.2297V49.5028Z" fill="black"/>
</svg>
