<svg width="72" height="72" viewBox="0 0 72 72" fill="none" xmlns="http://www.w3.org/2000/svg">
<path d="M28.5935 57.0596L27.7748 54.9638L28.5935 57.0596ZM16.4243 59.3964L15.2993 61.345H15.2994L16.4243 59.3964ZM12.3635 47.6892L10.1391 48.0279L12.3635 47.6892ZM13.8344 39.8823L15.7829 41.0073L13.8344 39.8823ZM12.0819 43.5941L9.87084 43.1775H9.87084L12.0819 43.5941ZM34.619 51.8823L36.5676 53.0073L34.619 51.8823ZM32.2807 55.2559L33.747 56.9625H33.747L32.2807 55.2559ZM25.2297 20.1451L23.2811 19.0201L25.2297 20.1451ZM58.2297 63.0028C59.4723 63.0028 60.4797 61.9954 60.4797 60.7528C60.4797 59.5101 59.4723 58.5028 58.2297 58.5028V63.0028ZM40.2297 58.5028C38.9871 58.5028 37.9797 59.5101 37.9797 60.7528C37.9797 61.9954 38.9871 63.0028 40.2297 63.0028V58.5028ZM44.0658 31.0201L32.6704 50.7573L36.5676 53.0073L47.9629 33.2701L44.0658 31.0201ZM15.7829 41.0073L27.1783 21.2701L23.2811 19.0201L11.8858 38.7573L15.7829 41.0073ZM27.7748 54.9638C24.4853 56.249 22.2451 57.1183 20.5156 57.5224C18.845 57.9127 18.0869 57.7582 17.5493 57.4478L15.2994 61.345C17.2592 62.4765 19.3618 62.4131 21.5394 61.9044C23.6583 61.4093 26.2539 60.3893 29.4123 59.1553L27.7748 54.9638ZM10.1391 48.0279C10.6497 51.3802 11.0641 54.1381 11.6949 56.2206C12.3431 58.3609 13.3395 60.2135 15.2993 61.345L17.5494 57.4478C17.0118 57.1375 16.499 56.5582 16.0017 54.9162C15.4869 53.2165 15.1196 50.8417 14.5878 47.3504L10.1391 48.0279ZM11.8858 38.7573C10.9204 40.4296 10.1474 41.7099 9.87084 43.1775L14.293 44.0107C14.3949 43.4701 14.6641 42.9453 15.7829 41.0073L11.8858 38.7573ZM14.5878 47.3504C14.2509 45.1381 14.1912 44.5514 14.293 44.0107L9.87084 43.1775C9.59431 44.6452 9.84841 46.119 10.1391 48.0279L14.5878 47.3504ZM32.6704 50.7573C31.5516 52.6953 31.2316 53.1908 30.8144 53.5493L33.747 56.9625C34.8798 55.9892 35.6021 54.6796 36.5676 53.0073L32.6704 50.7573ZM29.4123 59.1553C31.2109 58.4526 32.6143 57.9358 33.747 56.9625L30.8144 53.5493C30.3971 53.9079 29.8591 54.1495 27.7748 54.9638L29.4123 59.1553ZM40.497 17.7013C43.0016 19.1474 44.6816 20.1228 45.8392 21.0161C46.945 21.8695 47.2973 22.4443 47.4404 22.9784L51.787 21.8137C51.2869 19.9471 50.0928 18.6145 48.5884 17.4536C47.1356 16.3325 45.1414 15.1866 42.747 13.8042L40.497 17.7013ZM47.9629 33.2701C49.3453 30.8757 50.4994 28.8862 51.197 27.189C51.9194 25.4313 52.2872 23.6802 51.787 21.8137L47.4404 22.9784C47.5835 23.5124 47.5658 24.1864 47.0348 25.4783C46.479 26.8307 45.5118 28.5155 44.0658 31.0201L47.9629 33.2701ZM42.747 13.8042C40.3526 12.4218 38.3632 11.2677 36.6659 10.5701C34.9082 9.84772 33.1571 9.4799 31.2906 9.98004L32.4553 14.3267C32.9893 14.1836 33.6633 14.2013 34.9553 14.7323C36.3076 15.2881 37.9924 16.2553 40.497 17.7013L42.747 13.8042ZM27.1783 21.2701C28.6243 18.7655 29.5998 17.0855 30.493 15.9279C31.3464 14.8221 31.9212 14.4698 32.4553 14.3267L31.2906 9.98004C29.424 10.4802 28.0915 11.6743 26.9305 13.1787C25.8094 14.6315 24.6636 16.6257 23.2811 19.0201L27.1783 21.2701ZM47.1393 30.1965L26.3547 18.1965L24.1047 22.0936L44.8893 34.0936L47.1393 30.1965ZM58.2297 58.5028H40.2297V63.0028H58.2297V58.5028Z" fill="white"/>
</svg>
