<svg width="76" height="76" viewBox="0 0 76 76" fill="none" xmlns="http://www.w3.org/2000/svg">
<path d="M51.4614 56.846V67.6152C51.4614 69.0432 50.8941 70.413 49.8843 71.4226C48.8745 72.4322 47.5049 72.9998 46.0768 72.9998H8.3846C6.9565 72.9998 5.58692 72.4322 4.57711 71.4226C3.56731 70.413 3 69.0432 3 67.6152V8.3846C3 6.9565 3.56731 5.58692 4.57711 4.57711C5.58692 3.56731 6.9565 3 8.3846 3H46.0768C47.5049 3 48.8745 3.56731 49.8843 4.57711C50.8941 5.58692 51.4614 6.9565 51.4614 8.3846V19.1538" stroke="white" stroke-width="6" stroke-linecap="round" stroke-linejoin="round"/>
<path d="M35.3076 38H72.9998" stroke="white" stroke-width="6" stroke-linecap="round" stroke-linejoin="round"/>
<path d="M62.2305 27.2305L72.9997 37.9997L62.2305 48.7689" stroke="white" stroke-width="6" stroke-linecap="round" stroke-linejoin="round"/>
</svg>
