<svg width="60" height="60" viewBox="0 0 60 60" fill="none" xmlns="http://www.w3.org/2000/svg">
<path d="M25.516 3.21955C25.2754 3.07587 25.0005 3 24.7203 3C24.4401 3 24.1652 3.07587 23.9246 3.21955C23.7262 3.37675 23.5924 3.60124 23.5484 3.85052C23.5044 4.0998 23.5533 4.35656 23.6859 4.57217C28.5793 13.0459 29.6136 24.583 22.9301 30.9483C20.3586 28.7873 18.3171 26.0653 16.9626 22.9917C14.491 24.3644 12.4427 26.3879 11.04 28.8427C9.63732 31.2974 8.93386 34.0894 9.00602 36.9157C9.10694 39.4072 9.70517 41.8534 10.7655 44.1104C11.8259 46.3673 13.327 48.389 15.1804 50.0572C17.0339 51.7254 19.2022 53.0058 21.558 53.8236C23.9137 54.6409 26.4092 54.9792 28.8975 54.8181C41.7077 54.8181 48.3513 46.8616 48.7889 36.9157C49.3063 24.9808 40.8324 10.3009 25.516 3.21955Z" stroke="#6C6C6C" stroke-width="6" stroke-linecap="round" stroke-linejoin="round"/>
</svg>
