<svg width="114" height="114" viewBox="0 0 114 114" fill="none" xmlns="http://www.w3.org/2000/svg">
<path d="M14.25 57C14.25 39.4312 14.25 30.6468 18.628 24.4306C20.2147 22.1776 22.1776 20.2147 24.4306 18.628C30.6468 14.25 39.4312 14.25 57 14.25V14.25C74.5688 14.25 83.3532 14.25 89.5694 18.628C91.8224 20.2147 93.7853 22.1776 95.372 24.4306C99.75 30.6468 99.75 39.4312 99.75 57V57C99.75 74.5688 99.75 83.3532 95.372 89.5694C93.7853 91.8224 91.8224 93.7853 89.5694 95.372C83.3532 99.75 74.5688 99.75 57 99.75V99.75C39.4312 99.75 30.6468 99.75 24.4306 95.372C22.1776 93.7853 20.2147 91.8224 18.628 89.5694C14.25 83.3532 14.25 74.5688 14.25 57V57Z" stroke="white" stroke-width="6"/>
<circle cx="78.375" cy="35.625" r="7.125" fill="white"/>
<circle cx="57" cy="57" r="16" stroke="white" stroke-width="6"/>
</svg>
