<svg width="37" height="37" viewBox="0 0 37 37" fill="none" xmlns="http://www.w3.org/2000/svg">
<g filter="url(#filter0_d_1101_111)">
<g filter="url(#filter1_d_1101_111)">
<ellipse cx="18.2313" cy="19.117" rx="7.24988" ry="7.09574" fill="white"/>
</g>
<rect x="17.4248" y="4" width="2.14811" height="6.78723" rx="1.07406" fill="white"/>
<rect width="2.58907" height="6.47267" rx="1.29453" transform="matrix(0.656518 0.75431 -0.656518 0.75431 28.6816 6.76187)" fill="white"/>
<rect x="27.0928" y="19.4255" width="3.08511" height="5.90731" rx="1.54255" transform="rotate(-90 27.0928 19.4255)" fill="white"/>
<rect x="4" y="19.4255" width="3.08511" height="5.90731" rx="1.54255" transform="rotate(-90 4 19.4255)" fill="white"/>
<rect width="2.58907" height="6.47267" rx="1.29453" transform="matrix(-0.656518 0.75431 -0.656518 -0.75431 30.3799 26.8348)" fill="white"/>
<rect width="2.58907" height="6.47267" rx="1.29453" transform="matrix(-0.656518 -0.75431 0.656518 -0.75431 8.10352 28.7876)" fill="white"/>
<rect width="2.58907" height="6.47267" rx="1.29453" transform="matrix(0.656518 -0.75431 0.656518 0.75431 7.1748 8.97742)" fill="white"/>
<path d="M22.5706 26.3227C21.1337 33 20.6406 33 18.2599 33C15.8791 33 15.386 33 13.9491 26.3227C11.2545 18.9033 12.5119 20.3873 18.2599 21.8711C24.0071 20.3873 26.3421 18.9033 22.5706 26.3227Z" fill="white"/>
<rect width="1.02345" height="11.4848" rx="0.511725" transform="matrix(-0.193715 0.981058 -0.984009 -0.17812 24.1523 29.5219)" fill="#566E56"/>
<rect width="1.02345" height="11.4848" rx="0.511725" transform="matrix(-0.193715 0.981058 -0.984009 -0.17812 24.1523 26.7599)" fill="#566E56"/>
</g>
<defs>
<filter id="filter0_d_1101_111" x="0" y="0" width="37" height="36.9999" filterUnits="userSpaceOnUse" color-interpolation-filters="sRGB">
<feFlood flood-opacity="0" result="BackgroundImageFix"/>
<feColorMatrix in="SourceAlpha" type="matrix" values="0 0 0 0 0 0 0 0 0 0 0 0 0 0 0 0 0 0 127 0" result="hardAlpha"/>
<feOffset/>
<feGaussianBlur stdDeviation="2"/>
<feComposite in2="hardAlpha" operator="out"/>
<feColorMatrix type="matrix" values="0 0 0 0 0 0 0 0 0 0 0 0 0 0 0 0 0 0 0.2 0"/>
<feBlend mode="normal" in2="BackgroundImageFix" result="effect1_dropShadow_1101_111"/>
<feBlend mode="normal" in="SourceGraphic" in2="effect1_dropShadow_1101_111" result="shape"/>
</filter>
<filter id="filter1_d_1101_111" x="6.98145" y="12.0212" width="22.5" height="22.1915" filterUnits="userSpaceOnUse" color-interpolation-filters="sRGB">
<feFlood flood-opacity="0" result="BackgroundImageFix"/>
<feColorMatrix in="SourceAlpha" type="matrix" values="0 0 0 0 0 0 0 0 0 0 0 0 0 0 0 0 0 0 127 0" result="hardAlpha"/>
<feOffset dy="4"/>
<feGaussianBlur stdDeviation="2"/>
<feComposite in2="hardAlpha" operator="out"/>
<feColorMatrix type="matrix" values="0 0 0 0 0 0 0 0 0 0 0 0 0 0 0 0 0 0 0.2 0"/>
<feBlend mode="normal" in2="BackgroundImageFix" result="effect1_dropShadow_1101_111"/>
<feBlend mode="normal" in="SourceGraphic" in2="effect1_dropShadow_1101_111" result="shape"/>
</filter>
</defs>
</svg>
