<svg width="75" height="75" viewBox="0 0 75 75" fill="none" xmlns="http://www.w3.org/2000/svg">
<path d="M8.03585 2.67871H24.1073C25.5281 2.67871 26.8907 3.24312 27.8954 4.24778C28.9 5.25244 29.4644 6.61503 29.4644 8.03585V58.9287C29.4644 62.4805 28.0534 65.8871 25.5418 68.3991C23.0301 70.9105 19.6236 72.3216 16.0716 72.3216C14.3128 72.3216 12.5713 71.975 10.9463 71.3021C9.32146 70.6292 7.84503 69.6425 6.60137 68.3991C4.08974 65.8871 2.67871 62.4805 2.67871 58.9287V8.03585C2.67871 6.61503 3.24312 5.25244 4.24778 4.24778C5.25244 3.24312 6.61503 2.67871 8.03585 2.67871Z" stroke="#566E56" stroke-width="6" stroke-linecap="round" stroke-linejoin="round"/>
<path d="M29.4644 26.786L48.2144 7.9289C49.2181 6.93113 50.5759 6.37109 51.9912 6.37109C53.4065 6.37109 54.7645 6.93113 55.7679 7.9289L67.0715 19.286C68.0695 20.2898 68.6293 21.6476 68.6293 23.0628C68.6293 24.4781 68.0695 25.8359 67.0715 26.8396L25.5537 68.411" stroke="#566E56" stroke-width="6" stroke-linecap="round" stroke-linejoin="round"/>
<path d="M48.2141 45.5361H66.9641C68.3849 45.5361 69.7477 46.1006 70.7522 47.1052C71.7566 48.1099 72.3213 49.4725 72.3213 50.8933V66.9647C72.3213 68.3854 71.7566 69.7483 70.7522 70.7527C69.7477 71.7572 68.3849 72.3218 66.9641 72.3218H16.0713" stroke="#566E56" stroke-width="6" stroke-linecap="round" stroke-linejoin="round"/>
<path d="M2.67871 24.1074H29.4644" stroke="#566E56" stroke-width="6" stroke-linecap="round" stroke-linejoin="round"/>
<path d="M2.67871 45.5361H29.4644" stroke="#566E56" stroke-width="6" stroke-linecap="round" stroke-linejoin="round"/>
</svg>
