<svg width="72" height="66" viewBox="0 0 72 66" fill="none" xmlns="http://www.w3.org/2000/svg">
<path fill-rule="evenodd" clip-rule="evenodd" d="M54.2965 0.418772C50.4716 -4.91738e-05 45.6506 -2.71903e-05 39.5004 4.4791e-07H32.4996C26.3494 -2.71903e-05 21.5284 -4.91738e-05 17.7035 0.418772C13.8004 0.846175 10.6378 1.73402 7.93753 3.71682C6.30282 4.9172 4.86523 6.37015 3.67753 8.02233C3.13608 8.77554 2.67241 9.57105 2.27678 10.4177C1.06521 13.0106 0.524798 16.0172 0.261426 19.6026C-1.50952e-05 23.1617 -8.13992e-06 27.5245 4.43175e-07 32.9038V33.1532C-2.69029e-05 39.3691 -4.8654e-05 44.2416 0.414346 48.1073C0.83723 52.0522 1.71569 55.2486 3.67753 57.9777C4.86522 59.6298 6.30281 61.0828 7.93753 62.2832C10.6378 64.266 13.8004 65.1538 17.7035 65.5812C21.5283 66 26.3492 66 32.4993 66H39.5004C45.6505 66 50.4717 66 54.2965 65.5812C58.1996 65.1538 61.3622 64.266 64.0625 62.2832C65.6972 61.0828 67.1348 59.6298 68.3225 57.9777C70.2843 55.2486 71.1628 52.0522 71.5857 48.1073C72 44.2417 72 39.3693 72 33.1535V32.9015C72 27.4855 72 23.0995 71.7329 19.526C71.4637 15.9248 70.9111 12.9082 69.6713 10.3077C69.287 9.50177 68.8402 8.74259 68.3225 8.02233C67.1348 6.37015 65.6972 4.9172 64.0625 3.71682C61.3622 1.73402 58.1996 0.846175 54.2965 0.418772ZM10.8901 7.82414C12.5914 6.57493 14.7688 5.84676 18.2446 5.46616C21.7674 5.08041 26.3166 5.07692 32.6512 5.07692H39.3488C45.6834 5.07692 50.2326 5.08041 53.7554 5.46616C57.2312 5.84676 59.4087 6.57493 61.1099 7.82414C62.3176 8.71095 63.3797 9.78427 64.2573 11.0047L57.9039 17.426C52.2723 23.1178 48.2234 27.2023 44.7312 29.8952C41.297 32.5434 38.6979 33.6056 36 33.6056C33.3021 33.6056 30.703 32.5434 27.2687 29.8952C23.7766 27.2023 19.7277 23.1178 14.0961 17.426L7.7427 11.0047C8.62031 9.78427 9.68244 8.71095 10.8901 7.82414ZM66.2644 16.156C66.4667 17.2399 66.6169 18.4763 66.7239 19.9084C66.9751 23.269 66.9767 27.4656 66.9767 33C66.9767 39.4022 66.9733 44 66.5916 47.5605C66.215 51.0734 65.4946 53.2741 64.2586 54.9935C63.3807 56.2147 62.3181 57.2886 61.1099 58.1759C59.4087 59.4251 57.2312 60.1532 53.7554 60.5338C50.2326 60.9196 45.6834 60.9231 39.3488 60.9231H32.6512C26.3166 60.9231 21.7674 60.9196 18.2446 60.5338C14.7688 60.1532 12.5914 59.4251 10.8901 58.1759C9.68186 57.2886 8.61929 56.2147 7.74143 54.9935C6.50542 53.2741 5.78496 51.0734 5.40838 47.5605C5.0267 44 5.02326 39.4022 5.02326 33C5.02326 27.5049 5.02483 23.3283 5.27089 19.9785C5.37827 18.5167 5.52998 17.2577 5.73559 16.156L10.68 21.1533C16.1462 26.678 20.43 31.0075 24.2217 33.9314C28.1028 36.9242 31.7622 38.6825 36 38.6825C40.2378 38.6825 43.8972 36.9242 47.7783 33.9314C51.57 31.0075 55.8537 26.678 61.3199 21.1534L66.2644 16.156Z" fill="black"/>
</svg>
