<svg width="78" height="78" viewBox="0 0 78 78" fill="none" xmlns="http://www.w3.org/2000/svg">
<path fill-rule="evenodd" clip-rule="evenodd" d="M57.2965 6.41877C53.4716 5.99995 48.6506 5.99997 42.5004 6H35.4996C29.3494 5.99997 24.5284 5.99995 20.7035 6.41877C16.8004 6.84618 13.6378 7.73402 10.9375 9.71682C9.30282 10.9172 7.86523 12.3702 6.67753 14.0223C6.13608 14.7755 5.67241 15.571 5.27678 16.4177C4.06521 19.0106 3.5248 22.0172 3.26143 25.6026C2.99998 29.1617 2.99999 33.5245 3 38.9038V39.1532C2.99997 45.3691 2.99995 50.2416 3.41435 54.1073C3.83723 58.0522 4.71569 61.2486 6.67753 63.9777C7.86522 65.6298 9.30281 67.0828 10.9375 68.2832C13.6378 70.266 16.8004 71.1538 20.7035 71.5812C24.5283 72 29.3492 72 35.4993 72H42.5004C48.6505 72 53.4717 72 57.2965 71.5812C61.1996 71.1538 64.3622 70.266 67.0625 68.2832C68.6972 67.0828 70.1348 65.6298 71.3225 63.9777C73.2843 61.2486 74.1628 58.0522 74.5857 54.1073C75 50.2417 75 45.3693 75 39.1535V38.9015C75 33.4855 75 29.0995 74.7329 25.526C74.4637 21.9248 73.9111 18.9082 72.6713 16.3077C72.287 15.5018 71.8402 14.7426 71.3225 14.0223C70.1348 12.3702 68.6972 10.9172 67.0625 9.71682C64.3622 7.73402 61.1996 6.84617 57.2965 6.41877ZM13.8901 13.8241C15.5914 12.5749 17.7688 11.8468 21.2446 11.4662C24.7674 11.0804 29.3166 11.0769 35.6512 11.0769H42.3488C48.6834 11.0769 53.2326 11.0804 56.7554 11.4662C60.2312 11.8468 62.4087 12.5749 64.1099 13.8241C65.3176 14.711 66.3797 15.7843 67.2573 17.0047L60.9039 23.426C55.2723 29.1178 51.2234 33.2023 47.7312 35.8952C44.297 38.5434 41.6979 39.6056 39 39.6056C36.3021 39.6056 33.703 38.5434 30.2687 35.8952C26.7766 33.2023 22.7277 29.1178 17.0961 23.426L10.7427 17.0047C11.6203 15.7843 12.6824 14.711 13.8901 13.8241ZM69.2644 22.156C69.4667 23.2399 69.6169 24.4763 69.7239 25.9084C69.9751 29.269 69.9767 33.4656 69.9767 39C69.9767 45.4022 69.9733 50 69.5916 53.5605C69.215 57.0734 68.4946 59.2741 67.2586 60.9935C66.3807 62.2147 65.3181 63.2886 64.1099 64.1759C62.4087 65.4251 60.2312 66.1532 56.7554 66.5338C53.2326 66.9196 48.6834 66.9231 42.3488 66.9231H35.6512C29.3166 66.9231 24.7674 66.9196 21.2446 66.5338C17.7688 66.1532 15.5914 65.4251 13.8901 64.1759C12.6819 63.2886 11.6193 62.2147 10.7414 60.9935C9.50542 59.2741 8.78496 57.0734 8.40838 53.5605C8.0267 50 8.02326 45.4022 8.02326 39C8.02326 33.5049 8.02483 29.3283 8.27089 25.9785C8.37827 24.5167 8.52998 23.2577 8.73559 22.156L13.68 27.1533C19.1462 32.678 23.43 37.0075 27.2217 39.9314C31.1028 42.9242 34.7622 44.6825 39 44.6825C43.2378 44.6825 46.8972 42.9242 50.7783 39.9314C54.57 37.0075 58.8537 32.678 64.3199 27.1534L69.2644 22.156Z" fill="white"/>
</svg>
