<svg width="75" height="75" viewBox="0 0 75 75" fill="none" xmlns="http://www.w3.org/2000/svg">
<path d="M36.4663 59.2205L38.21 61.6617L36.4663 59.2205ZM36.632 59.1025L34.904 56.6502L36.632 59.1025ZM45.5322 56.2503L45.5514 59.2503L45.5322 56.2503ZM23.1122 60.9695L25.8976 62.0837L23.1122 60.9695ZM28.3077 65.048L26.564 62.6068L28.3077 65.048ZM68.1187 45.0214L70.9975 45.8655L68.1187 45.0214ZM57.5214 55.6187L58.3655 58.4975L57.5214 55.6187ZM14.7814 7.95302L16.1434 10.626L14.7814 7.95302ZM7.95302 14.7814L10.626 16.1434L7.95302 14.7814ZM60.2186 7.95302L58.8566 10.626L60.2186 7.95302ZM67.047 14.7814L64.374 16.1434L67.047 14.7814ZM25 34.5C23.3431 34.5 22 35.8431 22 37.5C22 39.1569 23.3431 40.5 25 40.5V34.5ZM50 40.5C51.6569 40.5 53 39.1569 53 37.5C53 35.8431 51.6569 34.5 50 34.5V40.5ZM25 22C23.3431 22 22 23.3431 22 25C22 26.6569 23.3431 28 25 28V22ZM37.5 28C39.1569 28 40.5 26.6569 40.5 25C40.5 23.3431 39.1569 22 37.5 22V28ZM43.75 3.25H31.25V9.25H43.75V3.25ZM3.25 31.25V44.4636H9.25V31.25H3.25ZM71.75 34.9507V31.25H65.75V34.9507H71.75ZM18.0364 59.25H19.9169V53.25H18.0364V59.25ZM30.0515 67.4892L38.21 61.6617L34.7226 56.7793L26.564 62.6068L30.0515 67.4892ZM45.7356 59.25H47.4507V53.25H45.7356V59.25ZM38.21 61.6617C38.2963 61.6001 38.3288 61.5768 38.3601 61.5548L34.904 56.6502C34.8534 56.6858 34.8027 56.722 34.7226 56.7793L38.21 61.6617ZM45.7356 53.25C45.637 53.25 45.5748 53.25 45.513 53.2504L45.5514 59.2503C45.5897 59.25 45.6297 59.25 45.7356 59.25V53.25ZM38.3601 61.5548C40.4659 60.0709 42.9753 59.2668 45.5514 59.2503L45.513 53.2504C41.7126 53.2747 38.0106 54.4611 34.904 56.6502L38.3601 61.5548ZM19.9169 59.25C20.2292 59.25 20.4427 59.5654 20.3268 59.8554L25.8976 62.0837C27.5901 57.8526 24.474 53.25 19.9169 53.25V59.25ZM20.3268 59.8554C17.9375 65.8284 24.8166 71.2285 30.0515 67.4892L26.564 62.6068C26.4208 62.7092 26.34 62.709 26.3009 62.7068C26.236 62.7033 26.1363 62.6745 26.0349 62.5949C25.9335 62.5152 25.8818 62.4253 25.863 62.363C25.8516 62.3256 25.8322 62.2472 25.8976 62.0837L20.3268 59.8554ZM65.75 34.9507C65.75 40.4403 65.7194 42.542 65.2399 44.1773L70.9975 45.8655C71.7806 43.1951 71.75 40.0182 71.75 34.9507H65.75ZM47.4507 59.25C52.5182 59.25 55.6951 59.2806 58.3655 58.4975L56.6773 52.7399C55.042 53.2194 52.9403 53.25 47.4507 53.25V59.25ZM65.2399 44.1773C64.0301 48.3034 60.8034 51.5301 56.6773 52.7399L58.3655 58.4975C64.4526 56.7127 69.2127 51.9526 70.9975 45.8655L65.2399 44.1773ZM3.25 44.4636C3.25 52.6299 9.87011 59.25 18.0364 59.25V53.25C13.1838 53.25 9.25 49.3162 9.25 44.4636H3.25ZM31.25 3.25C26.9241 3.25 23.4992 3.24767 20.7432 3.47284C17.9522 3.70088 15.584 4.17709 13.4194 5.28L16.1434 10.626C17.3212 10.0259 18.8118 9.65063 21.2318 9.45291C23.6868 9.25233 26.8251 9.25 31.25 9.25V3.25ZM9.25 31.25C9.25 26.8251 9.25233 23.6868 9.45291 21.2318C9.65063 18.8118 10.0259 17.3212 10.626 16.1434L5.28 13.4194C4.17709 15.584 3.70088 17.9522 3.47284 20.7432C3.24767 23.4992 3.25 26.9241 3.25 31.25H9.25ZM13.4194 5.28C9.91491 7.06565 7.06565 9.91491 5.28 13.4194L10.626 16.1434C11.8364 13.7678 13.7678 11.8364 16.1434 10.626L13.4194 5.28ZM43.75 9.25C48.1749 9.25 51.3132 9.25233 53.7682 9.45291C56.1882 9.65063 57.6788 10.0259 58.8566 10.626L61.5806 5.28C59.416 4.17709 57.0478 3.70088 54.2568 3.47284C51.5008 3.24767 48.0759 3.25 43.75 3.25V9.25ZM71.75 31.25C71.75 26.9241 71.7523 23.4992 71.5272 20.7432C71.2991 17.9522 70.8229 15.584 69.72 13.4194L64.374 16.1434C64.9741 17.3212 65.3494 18.8118 65.5471 21.2318C65.7477 23.6868 65.75 26.8251 65.75 31.25H71.75ZM58.8566 10.626C61.2322 11.8364 63.1636 13.7678 64.374 16.1434L69.72 13.4194C67.9344 9.91491 65.0851 7.06565 61.5806 5.28L58.8566 10.626ZM25 40.5H50V34.5H25V40.5ZM25 28L37.5 28V22L25 22V28Z" fill="white"/>
</svg>
