<svg width="50" height="46" viewBox="0 0 50 46" fill="none" xmlns="http://www.w3.org/2000/svg">
<g filter="url(#filter0_d_940_216)">
<path fill-rule="evenodd" clip-rule="evenodd" d="M10.9492 14.5026C10.9492 12.2934 12.7401 10.5026 14.9492 10.5026H19.3146C20.9714 10.5026 22.3146 9.15942 22.3146 7.50256C22.3146 5.84571 20.9714 4.50256 19.3146 4.50256H14.9492C9.42637 4.50256 4.94922 8.97972 4.94922 14.5026V16.9732C4.94922 18.6301 6.29236 19.9732 7.94922 19.9732C9.60607 19.9732 10.9492 18.6301 10.9492 16.9732V14.5026ZM39.0458 31.4974C39.0458 33.7066 37.2549 35.4974 35.0458 35.4974H30.6804C29.0236 35.4974 27.6804 36.8406 27.6804 38.4974C27.6804 40.1543 29.0236 41.4974 30.6804 41.4974H35.0458C40.5686 41.4974 45.0458 37.0203 45.0458 31.4974V28.1658C45.0458 26.5089 43.7026 25.1658 42.0458 25.1658C40.3889 25.1658 39.0458 26.5089 39.0458 28.1658V31.4974ZM39.0458 14.5026C39.0458 12.2934 37.2549 10.5026 35.0458 10.5026H30.6804C29.0236 10.5026 27.6804 9.15942 27.6804 7.50256C27.6804 5.84571 29.0236 4.50256 30.6804 4.50256H35.0458C40.5686 4.50256 45.0458 8.97971 45.0458 14.5026V16.9732C45.0458 18.6301 43.7026 19.9732 42.0458 19.9732C40.3889 19.9732 39.0458 18.6301 39.0458 16.9732V14.5026ZM14.9492 35.4974C12.7401 35.4974 10.9492 33.7066 10.9492 31.4974V28.1658C10.9492 26.5089 9.60607 25.1658 7.94922 25.1658C6.29236 25.1658 4.94922 26.5089 4.94922 28.1658V31.4974C4.94922 37.0203 9.42636 41.4974 14.9492 41.4974H19.3146C20.9714 41.4974 22.3146 40.1543 22.3146 38.4974C22.3146 36.8406 20.9714 35.4974 19.3146 35.4974H14.9492Z" fill="white"/>
</g>
<defs>
<filter id="filter0_d_940_216" x="0.949219" y="0.502563" width="48.0967" height="44.9949" filterUnits="userSpaceOnUse" color-interpolation-filters="sRGB">
<feFlood flood-opacity="0" result="BackgroundImageFix"/>
<feColorMatrix in="SourceAlpha" type="matrix" values="0 0 0 0 0 0 0 0 0 0 0 0 0 0 0 0 0 0 127 0" result="hardAlpha"/>
<feOffset/>
<feGaussianBlur stdDeviation="2"/>
<feComposite in2="hardAlpha" operator="out"/>
<feColorMatrix type="matrix" values="0 0 0 0 0 0 0 0 0 0 0 0 0 0 0 0 0 0 0.2 0"/>
<feBlend mode="normal" in2="BackgroundImageFix" result="effect1_dropShadow_940_216"/>
<feBlend mode="normal" in="SourceGraphic" in2="effect1_dropShadow_940_216" result="shape"/>
</filter>
</defs>
</svg>
