<svg width="102" height="96" viewBox="0 0 102 96" fill="none" xmlns="http://www.w3.org/2000/svg">
<g clip-path="url(#clip0_990_192)">
<path d="M42.3472 75.4321L58.2154 90.2984C59.189 91.2372 60.4063 91.9208 61.7468 92.2815C63.0872 92.6422 64.5045 92.6669 65.8584 92.3535C67.2207 92.0552 68.4785 91.4326 69.5111 90.5446C70.5437 89.6566 71.3162 88.5341 71.7543 87.284L97.813 13.7745C98.3572 12.3972 98.4694 10.9018 98.1365 9.46622C97.8035 8.03054 97.04 6.71507 95.9362 5.67606C94.8324 4.63705 93.4343 3.91823 91.9094 3.60503C90.3838 3.29184 88.7947 3.39745 87.3318 3.90931L9.22768 28.4353C7.85374 28.8769 6.63007 29.656 5.68312 30.6918C4.73617 31.7275 4.10028 32.9825 3.84118 34.327C3.57375 35.5498 3.63328 36.816 4.01444 38.0118C4.3956 39.2076 5.08644 40.2955 6.02489 41.1778L25.9694 59.9491L25.3142 83.7217L42.3472 75.4321Z" stroke="white" stroke-width="6" stroke-linecap="round" stroke-linejoin="round"/>
<path d="M95.4855 5.41602L25.9707 59.9486" stroke="white" stroke-width="6" stroke-linecap="round" stroke-linejoin="round"/>
</g>
<defs>
<clipPath id="clip0_990_192">
<rect width="102" height="96" fill="white"/>
</clipPath>
</defs>
</svg>
