<svg width="72" height="74" viewBox="0 0 72 74" fill="none" xmlns="http://www.w3.org/2000/svg">
<path d="M28.2832 52.4277L28.2832 39.5706" stroke="#A95555" stroke-width="6" stroke-linecap="round"/>
<path d="M43.7168 52.4277L43.7168 39.5706" stroke="#A95555" stroke-width="6" stroke-linecap="round"/>
<path d="M2.57227 19H69.4294V19C64.6012 19 62.1871 19 60.5456 20.309C60.1944 20.5891 59.8757 20.9078 59.5956 21.2591C58.2866 22.9005 58.2866 25.3146 58.2866 30.1429V58.4286C58.2866 64.0854 58.2866 66.9138 56.5292 68.6712C54.7718 70.4286 51.9434 70.4286 46.2866 70.4286H25.7151C20.0583 70.4286 17.2298 70.4286 15.4725 68.6712C13.7151 66.9138 13.7151 64.0854 13.7151 58.4286V30.1429C13.7151 25.3146 13.7151 22.9005 12.4061 21.2591C12.126 20.9078 11.8073 20.5891 11.4561 20.309C9.81461 19 7.4005 19 2.57227 19V19Z" stroke="#A95555" stroke-width="6" stroke-linecap="round"/>
<path d="M28.5511 4.52521C28.9906 4.25183 29.9591 4.01025 31.3064 3.83795C32.6536 3.66566 34.3043 3.57227 36.0025 3.57227C37.7007 3.57227 39.3514 3.66566 40.6987 3.83795C42.0459 4.01025 43.0144 4.25183 43.4539 4.52521" stroke="#A95555" stroke-width="6" stroke-linecap="round"/>
</svg>
